<svg id="Layer_1" data-name="Layer 1" xmlns="http://www.w3.org/2000/svg" viewBox="0 0 68.5 41.03"><defs><style>.cls-1{fill:none;stroke:#fff;stroke-miterlimit:10;stroke-width:1.5;}</style></defs><title>education</title><polygon class="cls-1" points="67.14 12.37 64.05 13.7 63.92 13.75 61.14 14.95 59.64 15.6 53.11 18.39 34.25 26.49 15.39 18.39 4.57 13.75 4.45 13.7 1.36 12.37 34.25 0.53 67.14 12.37"/><polygon class="cls-1" points="54.45 20.4 54.45 28.94 34.25 37.56 14.09 28.85 14.09 20.32 34.25 29.03 54.45 20.4"/><polygon class="cls-1" points="59.64 18.04 61.14 17.4 61.14 36.52 59.64 36.52 59.64 18.04"/><polygon class="cls-1" points="63.2 40.53 57.58 40.53 58.98 38.1 59.42 37.34 61.35 37.34 61.79 38.1 63.2 40.53"/></svg>