<svg id="Layer_1" data-name="Layer 1" xmlns="http://www.w3.org/2000/svg" viewBox="0 0 1189 22"><defs><style>.cls-1{fill:#fff;}</style></defs><title>holes</title><circle class="cls-1" cx="37.15" cy="11" r="11"/><circle class="cls-1" cx="74.31" cy="11" r="11"/><circle class="cls-1" cx="111.46" cy="11" r="11"/><circle class="cls-1" cx="148.61" cy="11" r="11"/><circle class="cls-1" cx="185.77" cy="11" r="11"/><circle class="cls-1" cx="222.92" cy="11" r="11"/><circle class="cls-1" cx="260.07" cy="11" r="11"/><circle class="cls-1" cx="297.23" cy="11" r="11"/><circle class="cls-1" cx="334.38" cy="11" r="11"/><circle class="cls-1" cx="371.54" cy="11" r="11"/><circle class="cls-1" cx="408.69" cy="11" r="11"/><circle class="cls-1" cx="445.84" cy="11" r="11"/><circle class="cls-1" cx="483" cy="11" r="11"/><circle class="cls-1" cx="520.15" cy="11" r="11"/><circle class="cls-1" cx="557.3" cy="11" r="11"/><circle class="cls-1" cx="594.46" cy="11" r="11"/><circle class="cls-1" cx="631.61" cy="11" r="11"/><circle class="cls-1" cx="668.76" cy="11" r="11"/><circle class="cls-1" cx="705.92" cy="11" r="11"/><circle class="cls-1" cx="743.07" cy="11" r="11"/><circle class="cls-1" cx="780.22" cy="11" r="11"/><circle class="cls-1" cx="817.38" cy="11" r="11"/><circle class="cls-1" cx="854.53" cy="11" r="11"/><circle class="cls-1" cx="891.69" cy="11" r="11"/><circle class="cls-1" cx="928.84" cy="11" r="11"/><circle class="cls-1" cx="965.99" cy="11" r="11"/><circle class="cls-1" cx="1003.15" cy="11" r="11"/><circle class="cls-1" cx="1040.3" cy="11" r="11"/><circle class="cls-1" cx="1077.45" cy="11" r="11"/><circle class="cls-1" cx="1114.61" cy="11" r="11"/><circle class="cls-1" cx="1151.76" cy="11" r="11"/><path class="cls-1" d="M1253,389a11,11,0,0,0,0,22V389Z" transform="translate(-64 -389)"/><path class="cls-1" d="M64,389v22A11,11,0,0,0,64,389Z" transform="translate(-64 -389)"/></svg>